<?xml version="1.0" encoding="utf-8"?>
<!-- Generator: Adobe Illustrator 28.3.0, SVG Export Plug-In . SVG Version: 6.00 Build 0)  -->
<svg version="1.1" id="Capa_2_00000087404423318246456560000009618031589556859318_"
	 xmlns="http://www.w3.org/2000/svg" xmlns:xlink="http://www.w3.org/1999/xlink" x="0px" y="0px" viewBox="0 0 514.8 151.1"
	 style="enable-background:new 0 0 514.8 151.1;" xml:space="preserve">
<style type="text/css">
	.st0{fill:#0080C1;}
	.st1{fill:#DA0531;}
	.st2{fill:#7AAF27;}
	.st3{fill:#F1A837;}
	.st4{fill:#FFFFFF;}
	.st5{font-family:'Arial-BoldMT';}
	.st6{font-size:61.17px;}
	.st7{letter-spacing:-1;}
	.st8{font-size:61.54px;}
	.st9{letter-spacing:1;}
</style>
<g id="LOGO_FARMACIA">
	<g>
		<path class="st0" d="M180.8,23.5L147.1,4l-33.7,19.5v38.9l33.7,19.5l33.7-19.5L180.8,23.5L180.8,23.5z M147.1,73.4L120.4,58V27.1
			l26.7-15.4l26.7,15.4V58L147.1,73.4z"/>
		<path class="st1" d="M254.8,23.5L221,4l-33.7,19.5v38.9l67.5,0L254.8,23.5L254.8,23.5z M194.3,54.9V27.1L221,11.7l26.7,15.4v27.8
			L194.3,54.9L194.3,54.9z"/>
		<path class="st2" d="M147.1,88.6l-33.7-19.5L79.7,88.6v38.9l33.7,19.5l33.7-19.5L147.1,88.6L147.1,88.6z M113.4,138.6l-26.7-15.4
			V92.3l26.7-15.4l26.7,15.4v30.8C140.1,123.1,113.4,138.6,113.4,138.6z"/>
		<path class="st3" d="M73.2,88.6L39.5,69.1L5.8,88.6v38.9L39.5,147l33.7-19.5C73.2,127.5,73.2,88.6,73.2,88.6z M39.5,138.6
			l-26.7-15.4V92.3l26.7-15.4l26.7,15.4v30.8C66.2,123.1,39.5,138.6,39.5,138.6z"/>
		<path class="st3" d="M39.5,87.1c0,0,4.5,3.1,4.5,9.6s-4.5,9.6-4.5,9.6s-4.4-4.7-4.4-9.6S39.5,87.1,39.5,87.1z"/>
		<path class="st3" d="M54.4,101.3c0,0,0.9,5.4-3.7,9.9c-4.7,4.6-10,3.5-10,3.5s0.3-6.4,3.8-9.8C48,101.5,54.4,101.3,54.4,101.3
			L54.4,101.3z"/>
		<path class="st3" d="M54.4,114c0,0,0.9,5.4-3.7,9.9c-4.7,4.6-10,3.5-10,3.5s0.3-6.4,3.8-9.8C48,114.2,54.4,114,54.4,114L54.4,114z
			"/>
		<path class="st3" d="M24.7,101.4c0,0-0.9,5.4,3.7,9.9c4.6,4.6,10,3.5,10,3.5s-0.3-6.4-3.8-9.8C31.2,101.6,24.7,101.4,24.7,101.4
			L24.7,101.4z"/>
		<path class="st3" d="M24.7,114c0,0-0.9,5.4,3.7,9.9c4.6,4.6,10,3.5,10,3.5s-0.3-6.4-3.8-9.8C31.2,114.2,24.7,114,24.7,114
			L24.7,114z"/>
		<path class="st0" d="M130.9,42.9h17.9l9.7-11.1c0,0,0.9-1.5,1.9-0.7s0.4,2.1,0.4,2.1l-3.8,9.7h4.8c0,0-0.2,15.7-14.7,15.7
			S130.8,45.4,130.9,42.9L130.9,42.9z"/>
		<path class="st0" d="M139.8,24.3l7.5,6.3c2.1,1.7,2.3,4.8,0.6,6.9v0c-1.7,2.1-4.8,2.3-6.9,0.6l-7.5-6.3c-2.1-1.7-2.3-4.8-0.6-6.9
			v0C134.6,22.8,137.7,22.5,139.8,24.3z"/>
		<path class="st4" d="M138.6,34.2l4.4-5.2l2.6,2.2c0,0,3.4,2.5,1,5.3c-0.9,1-3.2,1.8-5.3,0S138.6,34.2,138.6,34.2z"/>
		<path class="st1" d="M209.8,27h20.1c0,0,0.3,9.9-8.2,9.9v13c0,0,3,0.8,3,2.4h-9c0,0,0.7-2.4,3-2.4V36.9
			C218.7,36.9,209.8,36.9,209.8,27L209.8,27z"/>
		<path class="st1" d="M217.9,22.9c0,0,2.4-4.6,8.5-3.9s9.3,4.5,8.9,9.2c-0.3,3.4-0.8,9.7-9.6,12.5c0,0-3.7,1.3-7.8,2.2
			c-3.7,0.8-2.8,2.3-0.2,2.8s6.5,0.8,8.1,2.9c1.6,2.1,1,3.9-0.4,2.2c-1.4-1.7-5.1-3-9.4-3.2s-4.7-5.5-2.1-6.7
			c2.5-1.2,14.9-3.6,16.6-8.9c1.5-4.5,1.1-8.5-3.6-9.5c-1.4-0.3-3,0.2-3.9,1.4c-1.1,1.2-2.6,2.7-3.8,2.5
			C217.1,26.4,217.9,22.9,217.9,22.9L217.9,22.9z"/>
		<path class="st2" d="M131.1,112.4c-3.4-5-8-6-15.1-7.4c2-6.6,1.7-13.1-0.7-17.8c0,0-1.5-2.1-2.9-1.1s-0.7,3.1-0.7,3.1
			s0.9,1.2,1.3,3.7l-8,5c-0.6,0.4-0.8,1.2-0.4,1.8s1.2,0.8,1.8,0.4l6.8-4.3c0,0.9,0,1.9-0.2,3.1c-0.4-0.3-1-0.3-1.4,0l-5.9,3.4
			c-2.4-1-4.1-2.2-5.2-3.2l8.1-5.1c0.6-0.4,0.8-1.2,0.4-1.8s-1.2-0.8-1.8-0.4L99.1,97c-0.1,0-0.1,0.1-0.2,0.2
			c-0.2-0.2-1.6-1.6-3.1-0.8c-1.5,0.9-0.3,3.1-0.3,3.1c3.2,4.2,8.8,7.4,15.6,8.5c-1.9,7-2.9,11.5,0,16.8c0,0,0.8,2.1,3,1.3
			c1.6-0.6-0.1-4.1-0.1-4.1s-0.3-0.8-0.5-2.1c0.1,0,0.2-0.1,0.3-0.1l8.2-5.2c0.6-0.4,0.8-1.2,0.4-1.8s-1.2-0.8-1.8-0.4l-7.4,4.7
			c0-0.5,0-1,0-1.6c0.1,0,0.2-0.1,0.3-0.1l8.2-5.2l0,0c2.2,1,3.8,2.1,4.7,2.9c-0.1,0-0.2,0.1-0.4,0.1l-8.2,5.2
			c-0.6,0.4-0.8,1.2-0.4,1.8s1.2,0.8,1.8,0.4l8.2-5.2c0.3-0.2,0.5-0.5,0.6-0.8c0.8,0.8,2.1,1.8,2.9,1
			C132.7,114.1,131.1,112.4,131.1,112.4L131.1,112.4z M109.1,103.4l3.7-2.1c-0.1,0.6-0.3,1.2-0.4,1.9c-0.1,0.3-0.2,0.6-0.2,0.9
			c-0.3-0.1-0.6-0.1-0.8-0.2C110.5,103.8,109.8,103.6,109.1,103.4L109.1,103.4z M113.7,112.1c0.2-1.2,0.6-2.3,1.1-3.6
			c1.3,0.1,2.6,0.3,3.7,0.6C118.5,109,113.7,112.1,113.7,112.1z"/>
		<text transform="matrix(1 0 0 1 185.57 125.01)" class="st4 st5 st6">d</text>
		<text transform="matrix(1 0 0 1 219.89 125.01)" class="st4 st5 st6">e </text>
		<text transform="matrix(1 0 0 1 260.99 125.01)" class="st4 st5 st6 st7">F</text>
		<text transform="matrix(1 0 0 1 293.78 125.01)" class="st4 st5 st6">a</text>
		<text transform="matrix(1 0 0 1 322.8301 125.01)" class="st4 st5 st6">r</text>
		<text transform="matrix(1 0 0 1 348.22 125.01)" class="st4 st5 st6">m</text>
		<text transform="matrix(1 0 0 1 398.62 125.01)" class="st4 st5 st6">a</text>
		<text transform="matrix(1 0 0 1 427.6799 125.01)" class="st4 st5 st6">c</text>
		<text transform="matrix(1 0 0 1 454.47 125.01)" class="st4 st5 st6">i</text>
		<text transform="matrix(1 0 0 1 472.8201 125.01)" class="st4 st5 st6">a</text>
		<text transform="matrix(1 0 0 1 277.03 60.17)" class="st4 st5 st8 st7">F</text>
		<text transform="matrix(1 0 0 1 310.01 60.17)" class="st4 st5 st8">a</text>
		<text transform="matrix(1 0 0 1 339.24 60.17)" class="st4 st5 st8 st9">c</text>
		<text transform="matrix(1 0 0 1 366.75 60.17)" class="st4 st5 st8">u</text>
		<text transform="matrix(1 0 0 1 400.96 60.17)" class="st4 st5 st8">l</text>
		<text transform="matrix(1 0 0 1 417.95 60.17)" class="st4 st5 st8">t</text>
		<text transform="matrix(1 0 0 1 438.25 60.17)" class="st4 st5 st8">ad</text>
	</g>
</g>
</svg>
