<?xml version="1.0" standalone="no"?>
<!DOCTYPE svg PUBLIC "-//W3C//DTD SVG 20010904//EN"
 "http://www.w3.org/TR/2001/REC-SVG-20010904/DTD/svg10.dtd">
<svg version="1.0" xmlns="http://www.w3.org/2000/svg"
 width="512.000000pt" height="512.000000pt" viewBox="0 0 512.000000 512.000000"
 preserveAspectRatio="xMidYMid meet">
<metadata>
Created by potrace 1.14, written by Peter Selinger 2001-2017
</metadata>
<g transform="translate(0.000000,512.000000) scale(0.100000,-0.100000)"
fill="#000000" stroke="none">
<path d="M2620 3835 c-146 -85 -294 -172 -330 -193 l-65 -38 -2 -391 -2 -391
102 -59 c123 -70 90 -51 354 -203 120 -69 224 -124 232 -122 7 2 26 12 40 22
24 16 513 300 591 342 l35 19 0 389 c0 214 -3 391 -5 393 -9 7 -83 53 -130 79
-25 14 -133 76 -240 138 -242 140 -296 170 -307 169 -4 0 -127 -70 -273 -154z
m550 -153 c129 -74 242 -141 250 -148 22 -21 22 -610 0 -628 -13 -11 -135 -82
-280 -164 -19 -11 -82 -47 -139 -80 l-104 -60 -151 88 c-83 48 -203 117 -266
154 l-115 66 -1 309 -1 309 51 30 c41 24 209 122 451 262 36 21 4 35 305 -138z"/>
<path d="M2619 3579 c-33 -35 -38 -81 -14 -116 8 -12 56 -56 105 -97 70 -58
98 -76 121 -76 55 0 109 46 103 88 -1 6 -2 21 -3 31 -1 23 -23 47 -106 117
-87 73 -106 84 -143 84 -25 0 -42 -8 -63 -31z"/>
<path d="M3107 3418 c-19 -24 -45 -54 -57 -68 -12 -14 -44 -50 -71 -81 l-50
-57 -175 0 c-96 1 -177 -2 -180 -5 -10 -10 25 -126 50 -165 13 -21 40 -52 60
-70 61 -53 100 -65 211 -66 94 -1 103 1 145 28 25 16 56 41 68 55 37 41 72
123 74 176 l3 49 -36 -2 c-21 -2 -40 1 -43 6 -3 6 3 32 15 59 11 26 29 72 39
101 16 46 17 54 4 67 -9 8 -17 15 -19 15 -1 0 -18 -19 -38 -42z"/>
<path d="M4035 3796 l-330 -192 0 -390 0 -389 675 0 675 0 0 390 0 389 -185
108 c-102 60 -194 113 -205 118 -20 11 -34 18 -189 108 -49 29 -94 52 -100 51
-6 0 -159 -87 -341 -193z m665 -143 l215 -124 -1 -272 c-1 -150 -2 -275 -3
-278 0 -3 -241 -6 -534 -6 l-532 0 0 278 c0 153 2 279 5 281 12 10 132 78 136
78 3 0 28 15 57 33 29 18 59 36 67 40 8 3 71 39 140 80 l125 75 55 -30 c30
-17 152 -86 270 -155z"/>
<path d="M4421 3687 c-66 -17 -113 -66 -105 -111 7 -46 39 -45 92 4 44 40 76
47 119 26 60 -28 75 -105 35 -186 -25 -51 -147 -128 -169 -106 -12 11 13 23
54 25 7 1 28 15 47 31 35 31 53 70 61 129 l4 31 -204 0 -204 0 5 -27 c15 -89
60 -143 134 -163 36 -10 41 -14 38 -37 -2 -21 -11 -28 -46 -38 -59 -18 -72
-31 -72 -76 0 -49 34 -75 103 -78 24 -1 22 -38 -3 -46 -11 -3 -24 -14 -30 -24
-8 -17 -2 -18 80 -19 51 0 90 4 90 9 0 6 -13 18 -30 27 -31 18 -39 32 -17 32
14 0 58 -28 68 -43 4 -5 11 -8 17 -6 7 3 6 16 -4 37 -9 24 -25 38 -52 49 -37
14 -38 16 -38 60 l1 45 55 17 c142 45 200 113 214 250 7 74 -25 135 -87 168
-41 21 -116 31 -156 20z m-91 -508 c0 -27 -3 -30 -22 -24 -13 4 -27 11 -32 16
-13 11 12 39 35 39 15 0 19 -7 19 -31z"/>
<path d="M666 2645 c-43 -25 -82 -45 -87 -45 -5 0 -9 -4 -9 -9 0 -5 -8 -11
-17 -14 -10 -4 -44 -21 -75 -39 -31 -18 -134 -78 -230 -133 -95 -55 -175 -103
-178 -107 -10 -14 -5 -777 5 -786 13 -11 635 -369 656 -377 10 -4 139 65 350
187 l334 193 1 391 1 391 -86 51 c-47 27 -189 110 -316 183 -126 72 -239 138
-250 145 -18 12 -30 8 -99 -31z m254 -216 c256 -149 291 -169 297 -169 3 0 17
-9 31 -19 l27 -19 0 -308 0 -309 -263 -152 c-145 -84 -267 -153 -270 -153 -4
0 -126 69 -272 153 l-265 153 0 302 c0 167 2 308 6 313 5 9 519 309 529 309 3
0 84 -46 180 -101z"/>
<path d="M705 2280 c-68 -107 -66 -194 4 -299 l29 -44 27 29 c48 51 59 84 60
164 0 75 -21 137 -60 176 -22 22 -33 17 -60 -26z"/>
<path d="M446 1993 c14 -119 123 -223 234 -223 46 0 47 3 24 81 -31 105 -74
147 -177 175 -85 22 -87 21 -81 -33z"/>
<path d="M923 2018 c-54 -21 -90 -50 -115 -94 -19 -35 -48 -140 -40 -148 11
-11 62 -6 104 11 95 37 154 109 165 202 l6 52 -37 -3 c-20 -1 -57 -10 -83 -20z"/>
<path d="M445 1780 c-3 -4 -2 -26 1 -47 19 -125 135 -222 257 -214 15 1 17 7
12 39 -14 80 -54 152 -102 182 -55 33 -157 58 -168 40z"/>
<path d="M965 1776 c-69 -17 -110 -40 -138 -78 -33 -44 -63 -132 -58 -174 2
-18 107 3 149 30 50 32 77 63 101 116 23 51 28 120 9 119 -7 0 -35 -6 -63 -13z"/>
<path d="M2035 2580 c-105 -60 -258 -148 -340 -196 l-150 -87 1 -381 c1 -210
2 -386 3 -392 1 -9 63 -48 173 -109 10 -5 127 -72 259 -149 209 -120 244 -137
262 -128 12 6 164 93 337 194 l315 183 2 385 c2 212 -1 390 -5 395 -6 10 -87
59 -184 113 -69 39 -443 255 -463 268 -19 12 -40 2 -210 -96z m223 -68 c15
-10 38 -23 52 -31 14 -7 120 -67 235 -134 l210 -122 0 -310 0 -310 -200 -117
c-110 -64 -216 -124 -235 -134 -19 -11 -37 -21 -40 -24 -3 -3 -17 -11 -32 -19
-25 -13 -32 -11 -105 32 -43 24 -98 56 -123 70 -81 45 -325 188 -329 193 -7 7
-7 604 -1 614 7 11 299 180 311 180 5 0 9 5 9 10 0 6 4 10 9 10 5 0 51 25 102
55 52 30 98 55 102 55 5 0 21 -8 35 -18z"/>
<path d="M2193 2338 c-12 -16 -10 -42 8 -86 13 -33 13 -35 -16 -58 -16 -13
-33 -24 -37 -24 -13 0 -108 -71 -108 -81 0 -4 8 -13 18 -18 14 -8 29 -3 63 20
24 17 57 37 72 45 28 15 28 15 25 -12 -2 -15 -10 -28 -18 -29 -8 -2 -39 -17
-68 -34 -29 -17 -57 -31 -63 -31 -14 0 -87 38 -94 50 -3 5 33 34 80 64 47 31
85 60 85 65 0 15 -24 29 -40 22 -9 -3 -50 -28 -92 -54 -64 -40 -80 -47 -97
-38 -42 23 -70 -13 -46 -59 30 -58 151 -134 258 -160 26 -7 47 -16 47 -21 0
-4 -7 -38 -16 -76 -28 -118 -6 -245 47 -274 17 -9 25 -8 36 4 13 13 14 22 2
66 -7 28 -11 52 -8 54 2 2 39 25 81 51 94 58 107 71 87 92 -13 12 -24 8 -89
-32 -92 -57 -102 -61 -94 -41 6 16 102 83 163 113 15 8 83 -26 89 -44 1 -5
-36 -34 -83 -63 -55 -35 -85 -60 -85 -72 0 -35 30 -28 123 31 65 41 99 57 108
51 24 -15 39 -10 51 16 9 21 7 29 -16 60 -42 54 -100 87 -195 111 -84 22 -86
23 -84 51 1 15 5 64 9 108 7 88 -13 194 -43 227 -19 21 -46 23 -60 6z m10
-326 c-3 -15 -13 -22 -29 -22 -32 0 -30 16 4 34 32 17 33 17 25 -12z m95 -118
c22 -6 21 -8 -19 -35 -24 -15 -44 -27 -46 -25 -2 1 2 17 8 34 11 33 18 36 57
26z"/>
</g>
</svg>
